<?xml version="1.0" encoding="utf-8"?>
<!-- Generated by Mocodo 4.0.13 -->
<svg width="462" height="213" viewBox="0 0 462 213" xmlns="http://www.w3.org/2000/svg">
<rect x="0" y="0" width="462" height="213" fill="#f7f7f7" stroke="none" stroke-width="0"/>

<!-- Association OUVRIR -->
<g>
	<line x1="64" y1="60" x2="183" y2="60" stroke="#7fbc41" stroke-width="2"/>
	<line x1="288" y1="60" x2="183" y2="60" stroke="#7fbc41" stroke-width="2"/>
	<g>
		<path d="M201 35 a14 14 90 0 1 14 14 V60 h-64 V49 a14 14 90 0 1 14 -14" fill="#b8e186" stroke="#b8e186" stroke-width="0"/>
		<path d="M215 60 v11 a14 14 90 0 1 -14 14 H165 a14 14 90 0 1 -14 -14 V60 H64" fill="#e6f5d0" stroke="#e6f5d0" stroke-width="0"/>
		<rect x="151" y="35" width="64" height="50" fill="none" rx="14" stroke="#7fbc41" stroke-width="2"/>
		<line x1="151" y1="60" x2="215" y2="60" stroke="#7fbc41" stroke-width="1"/>
		<text x="159" y="52.75" fill="#000000" font-family="Verdana" font-size="12">OUVRIR</text>
	</g>
	<text x="124" y="77" fill="#c51b7d" font-family="Verdana" font-size="12">1,N</text>
	<text x="220" y="77" fill="#c51b7d" font-family="Verdana" font-size="12">0,N</text>
</g>

<!-- Association APPARTENIR -->
<g>
	<line x1="288" y1="60" x2="407" y2="60" stroke="#7fbc41" stroke-width="2"/>
	<line x1="183" y1="170" x2="407" y2="60" stroke="#7fbc41" stroke-width="2"/>
	<g>
		<path d="M439 35 a14 14 90 0 1 14 14 V60 h-92 V49 a14 14 90 0 1 14 -14" fill="#b8e186" stroke="#b8e186" stroke-width="0"/>
		<path d="M453 60 v11 a14 14 90 0 1 -14 14 H375 a14 14 90 0 1 -14 -14 V60 H92" fill="#e6f5d0" stroke="#e6f5d0" stroke-width="0"/>
		<rect x="361" y="35" width="92" height="50" fill="none" rx="14" stroke="#7fbc41" stroke-width="2"/>
		<line x1="361" y1="60" x2="453" y2="60" stroke="#7fbc41" stroke-width="1"/>
		<text x="368" y="52.75" fill="#000000" font-family="Verdana" font-size="12">APPARTENIR</text>
	</g>
	<text x="334" y="77" fill="#c51b7d" font-family="Verdana" font-size="12">1,1</text>
	<text x="225" y="164.99" fill="#c51b7d" font-family="Verdana" font-size="12">1,N</text>
</g>

<!-- Entity APPLICATION -->
<g>
	<g>
		<rect x="9" y="26" width="110" height="25" fill="#f1b6da" stroke="none" stroke-width="0" opacity="1"/>
		<rect x="9" y="51" width="110" height="43" fill="#fde0ef" stroke="none" stroke-width="0" opacity="1"/>
		<rect x="9" y="26" width="110" height="68" fill="none" stroke="#de77ae" stroke-width="2" opacity="1"/>
		<line x1="9" y1="51" x2="119" y2="51" stroke="#de77ae" stroke-width="1"/>
	</g>
	<text x="23" y="43.75" fill="#000000" font-family="Verdana" font-size="12">APPLICATION</text>
	<text x="14" y="68.8" fill="#000000" font-family="Verdana" font-size="12">id_application</text>
	<line x1="14" y1="71" x2="99" y2="71" stroke="#000000" stroke-width="1"/>
	<text x="14" y="85.8" fill="#000000" font-family="Verdana" font-size="12">type_application</text>
</g>

<!-- Entity EMPLOYE -->
<g>
	<g>
		<rect x="247" y="9" width="82" height="25" fill="#f1b6da" stroke="none" stroke-width="0" opacity="1"/>
		<rect x="247" y="34" width="82" height="77" fill="#fde0ef" stroke="none" stroke-width="0" opacity="1"/>
		<rect x="247" y="9" width="82" height="102" fill="none" stroke="#de77ae" stroke-width="2" opacity="1"/>
		<line x1="247" y1="34" x2="329" y2="34" stroke="#de77ae" stroke-width="1"/>
	</g>
	<text x="260" y="26.75" fill="#000000" font-family="Verdana" font-size="12">EMPLOYE</text>
	<text x="252" y="51.8" fill="#000000" font-family="Verdana" font-size="12">id_employe</text>
	<line x1="252" y1="54" x2="323" y2="54" stroke="#000000" stroke-width="1"/>
	<text x="252" y="68.8" fill="#000000" font-family="Verdana" font-size="12">habilitation</text>
	<text x="252" y="85.8" fill="#000000" font-family="Verdana" font-size="12">nom</text>
	<text x="252" y="102.8" fill="#000000" font-family="Verdana" font-size="12">prenom</text>
</g>

<!-- Entity LIGUE -->
<g>
	<g>
		<rect x="146" y="136" width="74" height="25" fill="#f1b6da" stroke="none" stroke-width="0" opacity="1"/>
		<rect x="146" y="161" width="74" height="43" fill="#fde0ef" stroke="none" stroke-width="0" opacity="1"/>
		<rect x="146" y="136" width="74" height="68" fill="none" stroke="#de77ae" stroke-width="2" opacity="1"/>
		<line x1="146" y1="161" x2="220" y2="161" stroke="#de77ae" stroke-width="1"/>
	</g>
	<text x="164" y="153.75" fill="#000000" font-family="Verdana" font-size="12">LIGUE</text>
	<text x="151" y="178.8" fill="#000000" font-family="Verdana" font-size="12">id_ligue</text>
	<line x1="151" y1="181" x2="199" y2="181" stroke="#000000" stroke-width="1"/>
	<text x="151" y="195.8" fill="#000000" font-family="Verdana" font-size="12">nom_ligue</text>
</g>
</svg>